<mxfile host="app.diagrams.net" modified="2023-04-05T15:20:42.043Z" agent="Mozilla/5.0 (Macintosh; Intel Mac OS X 10_15_7) AppleWebKit/537.36 (KHTML, like Gecko) Chrome/111.0.0.0 Safari/537.36" version="21.1.4" etag="zWsV-J0x6jJagsNNvUJ2" type="github">
  <diagram name="Page-1" id="9SzNTN62Y2kU7nw_ONcY">
    <mxGraphModel>
      <root>
        <mxCell id="0" />
        <mxCell id="1" parent="0" />
      </root>
    </mxGraphModel>
  </diagram>
</mxfile>
